Coordinates
version=1
nRows=27
nColumns=12
inDegrees=yes

Units are S.I. units (second, meters, Newtons, ...)
Angles are in degrees

endheader
time	SC_y	SC_z	SC_x	AC_y	AC_z	AC_x	GH_y	GH_z	GH_yy	EL_x	PS_y
       0.0              -37.48          13.17          17.66          42.91          4.812          18.89         -162.4          24.86          129.9          114.9          77.61
   0.03634              -37.48          13.17          17.67          42.91          4.809          18.89         -162.4          24.86          129.9          114.9          77.61
   0.07267              -37.48          13.18          17.68          42.91          4.806          18.89         -162.3          24.85          129.8          114.9          77.61
     0.109              -37.48          13.18          17.69          42.91          4.803          18.89         -162.3          24.84          129.8          114.9          77.61
    0.1453              -37.48          13.18           17.7          42.91            4.8          18.88         -162.2          24.84          129.7          114.9          77.61
    0.1817              -37.48          13.19          17.71          42.91          4.796          18.88         -162.2          24.83          129.7          114.9          77.61
     0.218              -37.48          13.19          17.73          42.91          4.792          18.88         -162.1          24.82          129.6          114.9          77.61
    0.2544              -37.48           13.2          17.74           42.9          4.788          18.88         -162.0          24.81          129.5          114.9          77.61
    0.2907              -37.48           13.2          17.76           42.9          4.784          18.88         -162.0          24.81          129.5          114.9          77.61
     0.327              -37.49          13.21          17.77           42.9          4.779          18.87         -161.9           24.8          129.4          114.9          77.61
    0.3634              -37.49          13.21          17.79           42.9          4.774          18.87         -161.8          24.79          129.3          114.9          77.61
    0.3997              -37.49          13.22          17.81           42.9          4.768          18.87         -161.7          24.78          129.2          114.9          77.61
     0.436              -37.49          13.22          17.83          42.89          4.762          18.86         -161.6          24.77          129.1          114.9          77.61
    0.4724              -37.49          13.23          17.85          42.89          4.756          18.86         -161.5          24.75          129.0          114.9          77.61
    0.5087              -37.49          13.24          17.87          42.89          4.749          18.86         -161.4          24.74          128.9          114.8          77.61
     0.545              -37.49          13.25          17.89          42.89          4.742          18.85         -161.3          24.72          128.8          114.8          77.61
    0.5814              -37.49          13.25          17.92          42.88          4.733          18.85         -161.2          24.71          128.7          114.8          77.61
    0.6177              -37.49          13.26          17.95          42.88          4.725          18.84         -161.0          24.69          128.5          114.8          77.61
    0.6541               -37.5          13.27          17.98          42.88          4.715          18.84         -160.9          24.67          128.4          114.8          77.61
    0.6904               -37.5          13.28          18.02          42.87          4.704          18.83         -160.7          24.65          128.2          114.8          77.61
    0.7267               -37.5           13.3          18.06          42.87          4.693          18.83         -160.5          24.63          128.0          114.8          77.61
    0.7631               -37.5          13.31           18.1          42.86           4.68          18.82         -160.3           24.6          127.9          114.8          77.61
    0.7994              -37.51          13.33          18.15          42.86          4.666          18.81         -160.1          24.58          127.6          114.8          77.61
    0.8357              -37.51          13.34           18.2          42.85           4.65           18.8         -159.9          24.55          127.4          114.8          77.62
    0.8721              -37.51          13.36          18.26          42.85          4.633          18.79         -159.6          24.51          127.1          114.8          77.62
    0.9084              -37.51          13.38          18.32          42.84          4.613          18.78         -159.3          24.48          126.8          114.8          77.62
    0.9448              -37.52           13.4          18.39          42.83          4.592          18.77         -159.0          24.43          126.5          114.8          77.62
